inDegrees=no
num_controls=7
num_derivatives=13
num_iterations=84
num_multipliers=7
num_parameters=0
num_slacks=7
num_states=26
objective=0.455707
objective_accelerations=0.048328
objective_balance=0.000976
objective_effort=0.038207
objective_height=0.362298
objective_ligament=0.005898
solver_duration=1015.879015
status=Solve_Succeeded
success=true
DataType=double
version=3
OpenSimVersion=4.5
endheader
time	/jointset/ground_pelvis/pelvis_tilt/value	/jointset/ground_pelvis/pelvis_tx/value	/jointset/ground_pelvis/pelvis_ty/value	/jointset/hip_r/hip_flexion_r/value	/jointset/hip_r/hip_adduction_r/value	/jointset/hip_r/hip_rotation_r/value	/jointset/back/lumbar_extension/value	/jointset/patellofemoral_r/patellar_flexion_r/value	/jointset/knee_r/knee_flexion_r/value	/jointset/knee_r/knee_adduction_r/value	/jointset/knee_r/knee_rotation_r/value	/jointset/ankle_r/ankle_angle_r/value	/jointset/subtalar_r/subtalar_angle_r/value	/jointset/ground_pelvis/pelvis_tilt/speed	/jointset/ground_pelvis/pelvis_tx/speed	/jointset/ground_pelvis/pelvis_ty/speed	/jointset/hip_r/hip_flexion_r/speed	/jointset/hip_r/hip_adduction_r/speed	/jointset/hip_r/hip_rotation_r/speed	/jointset/back/lumbar_extension/speed	/jointset/patellofemoral_r/patellar_flexion_r/speed	/jointset/knee_r/knee_flexion_r/speed	/jointset/knee_r/knee_adduction_r/speed	/jointset/knee_r/knee_rotation_r/speed	/jointset/ankle_r/ankle_angle_r/speed	/jointset/subtalar_r/subtalar_angle_r/speed	/forceset/tau_hip_flexion_r	/forceset/tau_hip_adduction_r	/forceset/tau_hip_rotation_r	/forceset/tau_knee_flexion_r	/forceset/tau_ankle_angle_r	/forceset/tau_subtalar_angle_r	/forceset/tau_lumbar_extension	lambda_cid13_p0	lambda_cid14_p0	lambda_cid14_p1	lambda_cid14_p2	lambda_cid14_p3	lambda_cid14_p4	lambda_cid14_p5	/jointset/ground_pelvis/pelvis_tilt/accel	/jointset/ground_pelvis/pelvis_tx/accel	/jointset/ground_pelvis/pelvis_ty/accel	/jointset/hip_r/hip_flexion_r/accel	/jointset/hip_r/hip_adduction_r/accel	/jointset/hip_r/hip_rotation_r/accel	/jointset/back/lumbar_extension/accel	/jointset/patellofemoral_r/patellar_flexion_r/accel	/jointset/knee_r/knee_flexion_r/accel	/jointset/knee_r/knee_adduction_r/accel	/jointset/knee_r/knee_rotation_r/accel	/jointset/ankle_r/ankle_angle_r/accel	/jointset/subtalar_r/subtalar_angle_r/accel	gamma_cid13_p0	gamma_cid14_p0	gamma_cid14_p1	gamma_cid14_p2	gamma_cid14_p3	gamma_cid14_p4	gamma_cid14_p5
0.5	-0.1289083778668295	0.02561667227991495	0.808347478085956	0.8798891084303658	-0.2230778517769612	-0.1247406376721878	-0.645783299187636	0.9533293834935885	0.9533293834935733	-0.04928475758418228	0.1743218937416941	0.2944324984818579	0.1382900126882957	-0.3085222486050822	-0.2144721177445323	-0.4996279847863256	1.832547014849649	-0.003658196499904878	0.1591502016961393	-0.7440850594767261	1.943385189419375	1.943385189419345	-0.4940400841563655	-0.002405225077386443	0.5365386589834046	0.206917834949567	-0.1917005600534964	0.000904848136238309	0.0178353364646299	-0.2955943937033604	0.008701461296010871	0.003647409626302265	0.23766342094557	-8.520017346817903	-39.43843777891204	-3.913513098633021	-0.5621935441855681	-5.779524745032105	-641.9438454505431	67.21744230376837	0.389536670406282	0.6351526466050803	-0.4255627724980747	-1.399829542743949	-0.2985036019962679	-0.6270799620545358	1.87389158623677	-1.386617098467683	-1.386617098467675	0.5362000377903233	-0.03776379397365448	-0.5659906015407261	-0.4581282715294772	-1.378987887014928e-07	-1.547244130987068e-07	3.586876290951213e-07	-1.682622262696007e-06	5.682146669059553e-08	-2.566252438212489e-07	2.9408642534179e-07
0.51	-0.1319733315461116	0.02350392941187159	0.8033310484998533	0.8981418323376903	-0.2231298591153913	-0.1231799879590049	-0.6531296594654918	0.9726914448323727	0.972691444832336	-0.05419655926928339	0.1742967891739052	0.2997687126594793	0.1403349662240098	-0.3044028508106214	-0.2080556015491942	-0.5035474433251819	1.817753251499451	-0.006709984210698685	0.1528951481602091	-0.7250878442449911	1.928783636896763	1.928783636896755	-0.4884102145878875	-0.00258682424419146	0.5306517823254135	0.2020850027578176	-0.1979248020009362	0.002221955142576871	0.01796708464321083	-0.3006752692700594	0.008141649023199688	0.003928220101802307	0.2436173125187348	-7.565586676046556	-39.9340846453629	-4.06923721088817	-0.3193171869083719	-5.790745888462202	-646.857900492255	67.32243972997998	0.4329704373874647	0.6480399123073568	-0.3586142172021635	-1.55584853737642	-0.3037427673509737	-0.6376611114202354	1.927509269663052	-1.533411919432215	-1.533411919429341	0.5629371084216017	-0.004347090346454731	-0.6079139356497673	-0.4941796063850317	-1.503568187951978e-07	-1.905838922111046e-07	1.541378845519697e-07	-2.041281101373551e-06	9.884309077941901e-08	-2.741592874802504e-07	1.143996714097406e-07
0.52	-0.13499512542674	0.02145597946704138	0.7982787289638373	0.916239278850267	-0.2232114296132784	-0.1216844773935938	-0.6602830730354232	0.9919001931278734	0.9919001931278134	-0.05905475092026542	0.1742706707919645	0.3050444825229792	0.1423319276551276	-0.2998902888793075	-0.2015135331018992	-0.5068059747689349	1.801491535900413	-0.009570828390695884	0.1461223721419677	-0.7054957178923293	1.912722580763186	1.9127225807632	-0.4833180773376071	-0.002607987903500423	0.5244497961585739	0.1973194140305738	-0.2041490439484911	0.00353906214888848	0.01809883282145433	-0.3057561448367907	0.007581836750398036	0.004209030577265759	0.2495712040918082	-6.670715998882359	-40.42736620225089	-4.22041673312031	-0.08188454461412562	-5.841129674206543	-651.7435561749564	67.49005898585364	0.4681694977776407	0.6602630969957113	-0.2933773534775267	-1.693419992511911	-0.260314895836764	-0.7306244585167511	1.992873810422459	-1.678517820660228	-1.678517820660237	0.428653574150509	-0.005676692474493495	-0.629012503311313	-0.4446795786284881	-1.649660653172346e-07	-2.573884628551435e-07	-3.252322815154251e-07	-2.758960302143228e-06	1.908473266160527e-07	-3.21064487342736e-07	-2.371467420411207e-07
0.53	-0.1379701040292363	0.01947383775121603	0.7931972242412605	0.9341670129675446	-0.2233213709120483	-0.120254316463658	-0.6672382790047374	1.010941153555804	1.010941153555711	-0.06385931810215797	0.1742433463050686	0.3102559587365493	0.1442800434802552	-0.2950718555905182	-0.1949180555093527	-0.5093746064156094	1.783840131859715	-0.0124192528643076	0.1400885645432213	-0.6855095507970966	1.895210278003796	1.895210278003811	-0.4773830254199613	-0.002907997748340516	0.5177312791590502	0.1922273370805844	-0.2097555909577762	0.004810981021302305	0.01839896369194107	-0.3113656498917148	0.007068081530981545	0.004228281444136487	0.2548986372881042	-5.836081616033939	-40.95191569732571	-4.515345236364488	0.2066556511356148	-5.538289109053308	-656.7528304901526	67.48161888653574	0.4936847618092093	0.6587511058323597	-0.2206207112352995	-1.833315323961251	-0.2978670207140822	-0.5133011169574656	2.006876935772441	-1.826435998061834	-1.826435998062053	0.7077121650943164	-0.05045973293647575	-0.7103857153064627	-0.553396898127253	-1.400463010153768e-07	-2.009036450839404e-07	-9.421432658838272e-08	-2.229636906548367e-06	1.314796572875351e-07	-2.774947446040525e-07	-5.629202140016373e-08
0.54	-0.1408958973953551	0.01755756301440387	0.7880936302740222	0.9519117701015839	-0.2234599486151084	-0.118879202050923	-0.6739925455477581	1.02979922105725	1.02979922105707	-0.06859817853198209	0.1742113623992724	0.3153968268967131	0.1461748535068927	-0.2900532416065545	-0.1883401372992605	-0.5112238237011831	1.764896139254426	-0.01529810924158882	0.1351130686883401	-0.6653078326338377	1.876143995465067	1.876143995465083	-0.4701767269214202	-0.003539871691091866	0.5103281854781909	0.1866582543328784	-0.2153621379671486	0.006082899893854759	0.01869909456135736	-0.3169751549467608	0.006554326311628141	0.004247532311327113	0.2602260704843178	-5.061696628758842	-41.47398327971755	-4.802518716345671	0.4855972906747122	-5.282010955307555	-661.7321177376565	67.57233196644276	0.508205636813272	0.6567512205040473	-0.1494944812574598	-1.951937705430069	-0.2664012765705251	-0.518962109743664	2.035984024028025	-1.989313776527825	-1.989313776527821	0.6829028903292775	-0.07204951205683249	-0.7659278395793804	-0.5400807381719391	-7.139231197218828e-08	-8.013546512893566e-09	9.227649536942164e-07	-3.206510639118744e-07	-9.5363311372641e-08	-1.338250653704576e-07	7.136022518530245e-07
0.55	-0.1437705484406223	0.01570705521667122	0.7829751354748702	0.9694607556184072	-0.2236264810315452	-0.1175551788420066	-0.6805433531880182	1.048458513114374	1.048458513114156	-0.07326570806937918	0.1741739457263525	0.3204609229814057	0.1480134984224798	-0.2848326832886448	-0.1817551331247197	-0.5123535023876636	1.744670065916023	-0.01800933501454844	0.1297874161301651	-0.6447982438333492	1.855480382098131	1.855480382098154	-0.4631936249481913	-0.003947585037293757	0.5024196743062107	0.1810136284830251	-0.2210290954196652	0.007068481210357264	0.01902637606697228	-0.3227769713148674	0.006347592335486962	0.004268863809153103	0.2656620296607337	-4.347289439131162	-41.89998355595316	-5.068926037083545	0.7577530367085461	-5.21012852542316	-666.8268799597867	67.7507290787386	0.5356351622553962	0.6602745630411412	-0.07647059333564923	-2.092563210413369	-0.2734541068449817	-0.525022190244693	2.066764046502855	-2.139983404697373	-2.139983404696695	0.7265327726027829	-0.0255580762839381	-0.8140618474369709	-0.5849011387860367	-3.038324710898293e-08	1.005263049611335e-07	1.445321166173035e-06	7.345814965317796e-07	-2.184806172028983e-07	-4.939510516025755e-08	1.122659234247219e-06
